<?xml version="1.0" standalone="no"?>
<!DOCTYPE svg PUBLIC "-//W3C//DTD SVG 20010904//EN"
 "http://www.w3.org/TR/2001/REC-SVG-20010904/DTD/svg10.dtd">
<svg version="1.0" xmlns="http://www.w3.org/2000/svg"
 width="24px" height="22px" viewBox="0 0 256.000000 256.000000"
 preserveAspectRatio="xMidYMid meet">

<g transform="translate(0.000000,256.000000) scale(0.100000,-0.100000)"
fill="#000000" stroke="none">
<path d="M185 2375 l-25 -24 0 -271 0 -271 25 -24 24 -25 271 0 271 0 24 25
25 24 0 271 0 271 -25 24 -24 25 -271 0 -271 0 -24 -25z m455 -295 l0 -160
-160 0 -160 0 0 160 0 160 160 0 160 0 0 -160z"/>
<path d="M985 2375 l-25 -24 0 -271 0 -271 25 -24 24 -25 271 0 271 0 24 25
25 24 0 271 0 271 -25 24 -24 25 -271 0 -271 0 -24 -25z m455 -295 l0 -160
-160 0 -160 0 0 160 0 160 160 0 160 0 0 -160z"/>
<path d="M1785 2375 l-25 -24 0 -271 0 -271 25 -24 24 -25 271 0 271 0 24 25
25 24 0 271 0 271 -25 24 -24 25 -271 0 -271 0 -24 -25z m455 -295 l0 -160
-160 0 -160 0 0 160 0 160 160 0 160 0 0 -160z"/>
<path d="M185 1575 l-25 -24 0 -271 0 -271 25 -24 24 -25 271 0 271 0 24 25
25 24 0 271 0 271 -25 24 -24 25 -271 0 -271 0 -24 -25z m455 -295 l0 -160
-160 0 -160 0 0 160 0 160 160 0 160 0 0 -160z"/>
<path d="M985 1575 l-25 -24 0 -271 0 -271 25 -24 24 -25 271 0 271 0 24 25
25 24 0 271 0 271 -25 24 -24 25 -271 0 -271 0 -24 -25z m455 -295 l0 -160
-160 0 -160 0 0 160 0 160 160 0 160 0 0 -160z"/>
<path d="M1785 1575 l-25 -24 0 -271 0 -271 25 -24 24 -25 271 0 271 0 24 25
25 24 0 271 0 271 -25 24 -24 25 -271 0 -271 0 -24 -25z m455 -295 l0 -160
-160 0 -160 0 0 160 0 160 160 0 160 0 0 -160z"/>
<path d="M185 775 l-25 -24 0 -271 0 -271 25 -24 24 -25 271 0 271 0 24 25 25
24 0 271 0 271 -25 24 -24 25 -271 0 -271 0 -24 -25z m455 -295 l0 -160 -160
0 -160 0 0 160 0 160 160 0 160 0 0 -160z"/>
<path d="M985 775 l-25 -24 0 -271 0 -271 25 -24 24 -25 271 0 271 0 24 25 25
24 0 271 0 271 -25 24 -24 25 -271 0 -271 0 -24 -25z m455 -295 l0 -160 -160
0 -160 0 0 160 0 160 160 0 160 0 0 -160z"/>
<path d="M1785 775 l-25 -24 0 -271 0 -271 25 -24 24 -25 271 0 271 0 24 25
25 24 0 271 0 271 -25 24 -24 25 -271 0 -271 0 -24 -25z m455 -295 l0 -160
-160 0 -160 0 0 160 0 160 160 0 160 0 0 -160z"/>
</g>
</svg>
